<svg xmlns="http://www.w3.org/2000/svg" xmlns:xlink="http://www.w3.org/1999/xlink" width="500" zoomAndPan="magnify" viewBox="0 0 375 374.999991" height="500" preserveAspectRatio="xMidYMid meet" version="1.0"><defs><clipPath id="182213ce5a"><path d="M 187.5 0 C 83.945312 0 0 83.945312 0 187.5 C 0 291.054688 83.945312 375 187.5 375 C 291.054688 375 375 291.054688 375 187.5 C 375 83.945312 291.054688 0 187.5 0 " clip-rule="nonzero"/></clipPath><clipPath id="6892a55661"><path d="M 19.402344 20.625 L 355.402344 20.625 L 355.402344 354.375 L 19.402344 354.375 Z M 19.402344 20.625 " clip-rule="nonzero"/></clipPath></defs><g clip-path="url(#182213ce5a)"><rect x="-37.5" width="450" fill="#000000" y="-37.499999" height="449.999989" fill-opacity="1"/></g><g clip-path="url(#6892a55661)"><path fill="#ffffff" d="M 187.433594 20.609375 C 94.832031 20.609375 19.765625 95.332031 19.765625 187.484375 C 19.765625 279.660156 94.832031 354.371094 187.433594 354.371094 C 280.019531 354.371094 355.089844 279.660156 355.089844 187.484375 C 355.085938 95.332031 280.019531 20.609375 187.433594 20.609375 Z M 187.433594 327.898438 C 109.519531 327.898438 46.363281 265.046875 46.363281 187.484375 C 46.363281 109.945312 109.519531 47.082031 187.433594 47.082031 C 265.339844 47.082031 328.496094 109.945312 328.496094 187.484375 C 328.496094 265.046875 265.339844 327.898438 187.433594 327.898438 Z M 187.433594 327.898438 " fill-opacity="1" fill-rule="nonzero"/></g><path fill="#ffffff" d="M 292.492188 191.585938 L 292.5625 191.515625 L 292.5625 191.5 C 294.757812 189.234375 294.773438 185.664062 292.550781 183.476562 L 210.253906 101.558594 C 209.148438 100.453125 207.6875 99.882812 206.230469 99.882812 C 204.757812 99.882812 203.296875 100.453125 202.1875 101.558594 L 202.09375 101.667969 C 201.011719 102.738281 200.414062 104.167969 200.414062 105.683594 L 200.414062 128.347656 C 200.414062 129.851562 201.015625 131.296875 202.09375 132.351562 L 257.457031 187.484375 L 202.09375 242.617188 C 201.011719 243.683594 200.414062 245.128906 200.414062 246.632812 L 200.414062 269.308594 C 200.414062 270.789062 201.015625 272.257812 202.09375 273.3125 L 202.1875 273.421875 C 203.253906 274.476562 204.707031 275.085938 206.230469 275.085938 C 207.742188 275.085938 209.183594 274.476562 210.253906 273.421875 Z M 292.492188 191.585938 " fill-opacity="1" fill-rule="nonzero"/><path fill="#ffffff" d="M 84.355469 191.585938 L 84.289062 191.515625 L 84.289062 191.5 C 82.09375 189.234375 82.09375 185.664062 84.289062 183.476562 L 166.589844 101.558594 C 167.714844 100.453125 169.171875 99.882812 170.625 99.882812 C 172.097656 99.882812 173.546875 100.453125 174.660156 101.558594 L 174.773438 101.667969 C 175.84375 102.738281 176.453125 104.167969 176.453125 105.683594 L 176.453125 128.347656 C 176.453125 129.851562 175.84375 131.296875 174.773438 132.351562 L 119.382812 187.484375 L 174.773438 242.617188 C 175.84375 243.683594 176.453125 245.128906 176.453125 246.632812 L 176.453125 269.308594 C 176.453125 270.789062 175.84375 272.257812 174.773438 273.3125 L 174.660156 273.421875 C 173.601562 274.476562 172.152344 275.085938 170.625 275.085938 C 169.117188 275.085938 167.667969 274.476562 166.589844 273.421875 Z M 84.355469 191.585938 " fill-opacity="1" fill-rule="nonzero"/></svg>