<svg xmlns="http://www.w3.org/2000/svg" xmlns:xlink="http://www.w3.org/1999/xlink" width="600" zoomAndPan="magnify" viewBox="0 0 450 149.999998" height="200" preserveAspectRatio="xMidYMid meet" version="1.0"><defs><g/><clipPath id="3b88941cf3"><path d="M 0 23.972656 L 102.75 23.972656 L 102.75 125.972656 L 0 125.972656 Z M 0 23.972656 " clip-rule="nonzero"/></clipPath></defs><g fill="#121212" fill-opacity="1"><g transform="translate(110.768853, 91.874997)"><g><path d="M 29.546875 0 L 25.09375 -20.953125 L 24.90625 -20.953125 L 20.453125 0 L 8.296875 0 L 0.25 -34.40625 L 11.75 -34.40625 L 15.703125 -14.90625 L 15.90625 -14.90625 L 19.796875 -34.40625 L 30.703125 -34.40625 L 34.84375 -14.90625 L 35.046875 -14.90625 L 38.75 -34.40625 L 49.75 -34.40625 L 41.703125 0 Z M 29.546875 0 "/></g></g></g><g fill="#121212" fill-opacity="1"><g transform="translate(160.761118, 91.874997)"><g><path d="M 16.65625 -27 C 21.488281 -27 25.175781 -25.863281 27.71875 -23.59375 C 30.269531 -21.332031 31.546875 -17.867188 31.546875 -13.203125 L 31.546875 -11.5 L 11.75 -11.5 C 11.75 -9.601562 12.171875 -8.171875 13.015625 -7.203125 C 13.867188 -6.234375 15.210938 -5.75 17.046875 -5.75 C 18.710938 -5.75 19.9375 -6.097656 20.71875 -6.796875 C 21.507812 -7.492188 21.90625 -8.425781 21.90625 -9.59375 L 31.546875 -9.59375 C 31.546875 -6.394531 30.328125 -3.894531 27.890625 -2.09375 C 25.460938 -0.300781 21.914062 0.59375 17.25 0.59375 C 12.351562 0.59375 8.550781 -0.546875 5.84375 -2.828125 C 3.144531 -5.109375 1.796875 -8.566406 1.796875 -13.203125 C 1.796875 -17.734375 3.113281 -21.164062 5.75 -23.5 C 8.382812 -25.832031 12.019531 -27 16.65625 -27 Z M 17.046875 -20.65625 C 13.910156 -20.65625 12.160156 -19.171875 11.796875 -16.203125 L 21.5 -16.203125 C 21.5 -17.566406 21.109375 -18.648438 20.328125 -19.453125 C 19.546875 -20.253906 18.453125 -20.65625 17.046875 -20.65625 Z M 17.046875 -20.65625 "/></g></g></g><g fill="#121212" fill-opacity="1"><g transform="translate(194.105961, 91.874997)"><g><path d="M 13 -23.953125 C 14.894531 -25.984375 17.363281 -27 20.40625 -27 C 23.96875 -27 26.710938 -25.835938 28.640625 -23.515625 C 30.578125 -21.203125 31.546875 -17.78125 31.546875 -13.25 C 31.546875 -8.6875 30.578125 -5.238281 28.640625 -2.90625 C 26.710938 -0.570312 23.96875 0.59375 20.40625 0.59375 C 16.738281 0.59375 13.9375 -0.851562 12 -3.75 L 11.15625 0 L 3.046875 0 L 3.046875 -36.25 L 13 -36.25 Z M 17.296875 -19.65625 C 15.828125 -19.65625 14.726562 -19.128906 14 -18.078125 C 13.269531 -17.023438 12.90625 -15.664062 12.90625 -14 L 12.90625 -12.34375 C 12.90625 -10.675781 13.269531 -9.328125 14 -8.296875 C 14.726562 -7.265625 15.828125 -6.75 17.296875 -6.75 C 20.160156 -6.75 21.59375 -8.445312 21.59375 -11.84375 L 21.59375 -14.5 C 21.59375 -17.9375 20.160156 -19.65625 17.296875 -19.65625 Z M 17.296875 -19.65625 "/></g></g></g><g fill="#121212" fill-opacity="1"><g transform="translate(232.377192, 92.202323)"><g><path d="M 23.953125 -4.59375 C 24.648438 -4.59375 25.222656 -4.359375 25.671875 -3.890625 C 26.117188 -3.429688 26.34375 -2.882812 26.34375 -2.25 C 26.34375 -1.582031 26.117188 -1.039062 25.671875 -0.625 C 25.222656 -0.207031 24.648438 0 23.953125 0 L 6.546875 0 C 5.878906 0 5.3125 -0.234375 4.84375 -0.703125 C 4.382812 -1.171875 4.15625 -1.738281 4.15625 -2.40625 L 4.15625 -32.59375 C 4.15625 -33.257812 4.382812 -33.828125 4.84375 -34.296875 C 5.3125 -34.765625 5.878906 -35 6.546875 -35 L 23.953125 -35 C 24.648438 -35 25.222656 -34.78125 25.671875 -34.34375 C 26.117188 -33.914062 26.34375 -33.351562 26.34375 -32.65625 C 26.34375 -31.988281 26.117188 -31.445312 25.671875 -31.03125 C 25.222656 -30.613281 24.648438 -30.40625 23.953125 -30.40625 L 9.09375 -30.40625 L 9.09375 -20.203125 L 21.703125 -20.203125 C 22.398438 -20.203125 22.972656 -19.984375 23.421875 -19.546875 C 23.867188 -19.117188 24.09375 -18.570312 24.09375 -17.90625 C 24.09375 -17.195312 23.867188 -16.644531 23.421875 -16.25 C 22.972656 -15.851562 22.398438 -15.65625 21.703125 -15.65625 L 9.09375 -15.65625 L 9.09375 -4.59375 Z M 23.953125 -4.59375 "/></g></g></g><g fill="#121212" fill-opacity="1"><g transform="translate(260.872784, 92.202323)"><g><path d="M 22.59375 -3.703125 C 22.96875 -3.296875 23.15625 -2.828125 23.15625 -2.296875 C 23.15625 -1.628906 22.90625 -1.050781 22.40625 -0.5625 C 21.90625 -0.0820312 21.351562 0.15625 20.75 0.15625 C 19.976562 0.15625 19.328125 -0.195312 18.796875 -0.90625 L 12.09375 -9.34375 L 5.5 -0.90625 C 5.269531 -0.570312 4.988281 -0.320312 4.65625 -0.15625 C 4.320312 0.0078125 3.96875 0.09375 3.59375 0.09375 C 3.03125 0.09375 2.503906 -0.113281 2.015625 -0.53125 C 1.535156 -0.945312 1.296875 -1.4375 1.296875 -2 C 1.296875 -2.601562 1.476562 -3.101562 1.84375 -3.5 L 9.34375 -12.84375 L 1.65625 -22.546875 C 1.320312 -22.984375 1.15625 -23.453125 1.15625 -23.953125 C 1.15625 -24.617188 1.394531 -25.179688 1.875 -25.640625 C 2.351562 -26.109375 2.910156 -26.34375 3.546875 -26.34375 C 4.347656 -26.34375 5 -26.007812 5.5 -25.34375 L 12.34375 -16.703125 L 18.796875 -25.296875 C 19.296875 -25.992188 19.929688 -26.34375 20.703125 -26.34375 C 21.335938 -26.34375 21.867188 -26.132812 22.296875 -25.71875 C 22.734375 -25.300781 22.953125 -24.8125 22.953125 -24.25 C 22.953125 -23.613281 22.769531 -23.097656 22.40625 -22.703125 L 15 -13.34375 Z M 22.59375 -3.703125 "/></g></g></g><g fill="#121212" fill-opacity="1"><g transform="translate(285.169024, 92.202323)"><g><path d="M 16.703125 -26.65625 C 18.960938 -26.65625 21.007812 -26.078125 22.84375 -24.921875 C 24.675781 -23.773438 26.117188 -22.164062 27.171875 -20.09375 C 28.222656 -18.03125 28.75 -15.695312 28.75 -13.09375 C 28.75 -10.5 28.222656 -8.175781 27.171875 -6.125 C 26.117188 -4.070312 24.675781 -2.460938 22.84375 -1.296875 C 21.007812 -0.128906 18.992188 0.453125 16.796875 0.453125 C 15.066406 0.453125 13.453125 0.0703125 11.953125 -0.6875 C 10.453125 -1.457031 9.234375 -2.394531 8.296875 -3.5 L 8.296875 7.59375 C 8.296875 8.257812 8.070312 8.828125 7.625 9.296875 C 7.175781 9.765625 6.601562 10 5.90625 10 C 5.238281 10 4.675781 9.773438 4.21875 9.328125 C 3.769531 8.878906 3.546875 8.300781 3.546875 7.59375 L 3.546875 -23.84375 C 3.546875 -24.550781 3.757812 -25.132812 4.1875 -25.59375 C 4.625 -26.0625 5.195312 -26.296875 5.90625 -26.296875 C 6.601562 -26.296875 7.175781 -26.0625 7.625 -25.59375 C 8.070312 -25.132812 8.296875 -24.550781 8.296875 -23.84375 L 8.296875 -22.40625 C 9.097656 -23.570312 10.265625 -24.570312 11.796875 -25.40625 C 13.328125 -26.238281 14.960938 -26.65625 16.703125 -26.65625 Z M 16.15625 -3.953125 C 17.6875 -3.953125 19.066406 -4.347656 20.296875 -5.140625 C 21.535156 -5.941406 22.492188 -7.035156 23.171875 -8.421875 C 23.859375 -9.804688 24.203125 -11.363281 24.203125 -13.09375 C 24.203125 -14.832031 23.859375 -16.390625 23.171875 -17.765625 C 22.492188 -19.148438 21.535156 -20.242188 20.296875 -21.046875 C 19.066406 -21.847656 17.6875 -22.25 16.15625 -22.25 C 14.582031 -22.25 13.175781 -21.859375 11.9375 -21.078125 C 10.707031 -20.296875 9.75 -19.203125 9.0625 -17.796875 C 8.382812 -16.398438 8.046875 -14.832031 8.046875 -13.09375 C 8.046875 -11.363281 8.382812 -9.796875 9.0625 -8.390625 C 9.75 -6.992188 10.707031 -5.90625 11.9375 -5.125 C 13.175781 -4.34375 14.582031 -3.953125 16.15625 -3.953125 Z M 16.15625 -3.953125 "/></g></g></g><g fill="#121212" fill-opacity="1"><g transform="translate(315.864274, 92.202323)"><g><path d="M 16.59375 -26.796875 C 17.46875 -26.796875 18.21875 -26.570312 18.84375 -26.125 C 19.476562 -25.675781 19.796875 -25.117188 19.796875 -24.453125 C 19.796875 -23.648438 19.585938 -23.039062 19.171875 -22.625 C 18.753906 -22.207031 18.25 -22 17.65625 -22 C 17.351562 -22 16.898438 -22.097656 16.296875 -22.296875 C 15.597656 -22.535156 15.050781 -22.65625 14.65625 -22.65625 C 13.613281 -22.65625 12.601562 -22.296875 11.625 -21.578125 C 10.644531 -20.859375 9.84375 -19.875 9.21875 -18.625 C 8.601562 -17.375 8.296875 -15.984375 8.296875 -14.453125 L 8.296875 -2.40625 C 8.296875 -1.738281 8.070312 -1.171875 7.625 -0.703125 C 7.175781 -0.234375 6.601562 0 5.90625 0 C 5.195312 0 4.625 -0.222656 4.1875 -0.671875 C 3.757812 -1.117188 3.546875 -1.695312 3.546875 -2.40625 L 3.546875 -23.796875 C 3.546875 -24.460938 3.769531 -25.03125 4.21875 -25.5 C 4.675781 -25.96875 5.238281 -26.203125 5.90625 -26.203125 C 6.601562 -26.203125 7.175781 -25.96875 7.625 -25.5 C 8.070312 -25.03125 8.296875 -24.460938 8.296875 -23.796875 L 8.296875 -21.25 C 9.035156 -22.882812 10.132812 -24.207031 11.59375 -25.21875 C 13.0625 -26.238281 14.726562 -26.765625 16.59375 -26.796875 Z M 16.59375 -26.796875 "/></g></g></g><g fill="#121212" fill-opacity="1"><g transform="translate(336.511074, 92.202323)"><g><path d="M 26.546875 -14.09375 C 26.515625 -13.5 26.265625 -12.992188 25.796875 -12.578125 C 25.328125 -12.160156 24.78125 -11.953125 24.15625 -11.953125 L 6.546875 -11.953125 C 6.785156 -9.515625 7.710938 -7.5625 9.328125 -6.09375 C 10.941406 -4.632812 12.914062 -3.90625 15.25 -3.90625 C 16.851562 -3.90625 18.15625 -4.132812 19.15625 -4.59375 C 20.15625 -5.0625 21.035156 -5.664062 21.796875 -6.40625 C 22.296875 -6.695312 22.78125 -6.84375 23.25 -6.84375 C 23.8125 -6.84375 24.285156 -6.644531 24.671875 -6.25 C 25.054688 -5.851562 25.25 -5.382812 25.25 -4.84375 C 25.25 -4.144531 24.914062 -3.515625 24.25 -2.953125 C 23.28125 -1.984375 21.992188 -1.164062 20.390625 -0.5 C 18.796875 0.164062 17.164062 0.5 15.5 0.5 C 12.800781 0.5 10.425781 -0.0664062 8.375 -1.203125 C 6.320312 -2.335938 4.738281 -3.921875 3.625 -5.953125 C 2.507812 -7.984375 1.953125 -10.28125 1.953125 -12.84375 C 1.953125 -15.644531 2.523438 -18.101562 3.671875 -20.21875 C 4.828125 -22.34375 6.34375 -23.96875 8.21875 -25.09375 C 10.101562 -26.226562 12.128906 -26.796875 14.296875 -26.796875 C 16.429688 -26.796875 18.429688 -26.242188 20.296875 -25.140625 C 22.160156 -24.046875 23.660156 -22.53125 24.796875 -20.59375 C 25.929688 -18.664062 26.515625 -16.5 26.546875 -14.09375 Z M 14.296875 -22.40625 C 12.429688 -22.40625 10.816406 -21.878906 9.453125 -20.828125 C 8.085938 -19.773438 7.1875 -18.148438 6.75 -15.953125 L 21.5 -15.953125 L 21.5 -16.34375 C 21.332031 -18.113281 20.539062 -19.566406 19.125 -20.703125 C 17.707031 -21.835938 16.097656 -22.40625 14.296875 -22.40625 Z M 14.296875 -22.40625 "/></g></g></g><g fill="#121212" fill-opacity="1"><g transform="translate(365.006666, 92.202323)"><g><path d="M 2.046875 -4.09375 C 1.742188 -4.5625 1.59375 -5.015625 1.59375 -5.453125 C 1.59375 -6.117188 1.945312 -6.6875 2.65625 -7.15625 C 2.988281 -7.382812 3.367188 -7.5 3.796875 -7.5 C 4.398438 -7.5 4.953125 -7.25 5.453125 -6.75 C 6.453125 -5.613281 7.523438 -4.757812 8.671875 -4.1875 C 9.828125 -3.625 11.203125 -3.34375 12.796875 -3.34375 C 14.066406 -3.382812 15.179688 -3.675781 16.140625 -4.21875 C 17.109375 -4.769531 17.59375 -5.664062 17.59375 -6.90625 C 17.59375 -8.03125 17.101562 -8.894531 16.125 -9.5 C 15.144531 -10.101562 13.703125 -10.65625 11.796875 -11.15625 C 9.929688 -11.65625 8.378906 -12.175781 7.140625 -12.71875 C 5.910156 -13.269531 4.867188 -14.070312 4.015625 -15.125 C 3.171875 -16.175781 2.75 -17.550781 2.75 -19.25 C 2.75 -20.75 3.171875 -22.066406 4.015625 -23.203125 C 4.867188 -24.335938 6.003906 -25.21875 7.421875 -25.84375 C 8.835938 -26.476562 10.378906 -26.796875 12.046875 -26.796875 C 13.648438 -26.796875 15.242188 -26.492188 16.828125 -25.890625 C 18.410156 -25.296875 19.703125 -24.382812 20.703125 -23.15625 C 21.097656 -22.6875 21.296875 -22.203125 21.296875 -21.703125 C 21.296875 -21.171875 21.03125 -20.65625 20.5 -20.15625 C 20.164062 -19.851562 19.75 -19.703125 19.25 -19.703125 C 18.644531 -19.703125 18.160156 -19.898438 17.796875 -20.296875 C 17.097656 -21.097656 16.238281 -21.710938 15.21875 -22.140625 C 14.207031 -22.578125 13.082031 -22.796875 11.84375 -22.796875 C 10.582031 -22.796875 9.507812 -22.535156 8.625 -22.015625 C 7.738281 -21.503906 7.296875 -20.632812 7.296875 -19.40625 C 7.328125 -18.238281 7.832031 -17.367188 8.8125 -16.796875 C 9.800781 -16.234375 11.3125 -15.6875 13.34375 -15.15625 C 15.113281 -14.6875 16.582031 -14.179688 17.75 -13.640625 C 18.914062 -13.109375 19.898438 -12.316406 20.703125 -11.265625 C 21.503906 -10.222656 21.90625 -8.851562 21.90625 -7.15625 C 21.90625 -5.582031 21.453125 -4.21875 20.546875 -3.0625 C 19.648438 -1.914062 18.472656 -1.035156 17.015625 -0.421875 C 15.566406 0.191406 14.03125 0.5 12.40625 0.5 C 10.300781 0.5 8.359375 0.132812 6.578125 -0.59375 C 4.796875 -1.332031 3.285156 -2.5 2.046875 -4.09375 Z M 2.046875 -4.09375 "/></g></g></g><g fill="#121212" fill-opacity="1"><g transform="translate(388.85297, 92.202323)"><g><path d="M 2.046875 -4.09375 C 1.742188 -4.5625 1.59375 -5.015625 1.59375 -5.453125 C 1.59375 -6.117188 1.945312 -6.6875 2.65625 -7.15625 C 2.988281 -7.382812 3.367188 -7.5 3.796875 -7.5 C 4.398438 -7.5 4.953125 -7.25 5.453125 -6.75 C 6.453125 -5.613281 7.523438 -4.757812 8.671875 -4.1875 C 9.828125 -3.625 11.203125 -3.34375 12.796875 -3.34375 C 14.066406 -3.382812 15.179688 -3.675781 16.140625 -4.21875 C 17.109375 -4.769531 17.59375 -5.664062 17.59375 -6.90625 C 17.59375 -8.03125 17.101562 -8.894531 16.125 -9.5 C 15.144531 -10.101562 13.703125 -10.65625 11.796875 -11.15625 C 9.929688 -11.65625 8.378906 -12.175781 7.140625 -12.71875 C 5.910156 -13.269531 4.867188 -14.070312 4.015625 -15.125 C 3.171875 -16.175781 2.75 -17.550781 2.75 -19.25 C 2.75 -20.75 3.171875 -22.066406 4.015625 -23.203125 C 4.867188 -24.335938 6.003906 -25.21875 7.421875 -25.84375 C 8.835938 -26.476562 10.378906 -26.796875 12.046875 -26.796875 C 13.648438 -26.796875 15.242188 -26.492188 16.828125 -25.890625 C 18.410156 -25.296875 19.703125 -24.382812 20.703125 -23.15625 C 21.097656 -22.6875 21.296875 -22.203125 21.296875 -21.703125 C 21.296875 -21.171875 21.03125 -20.65625 20.5 -20.15625 C 20.164062 -19.851562 19.75 -19.703125 19.25 -19.703125 C 18.644531 -19.703125 18.160156 -19.898438 17.796875 -20.296875 C 17.097656 -21.097656 16.238281 -21.710938 15.21875 -22.140625 C 14.207031 -22.578125 13.082031 -22.796875 11.84375 -22.796875 C 10.582031 -22.796875 9.507812 -22.535156 8.625 -22.015625 C 7.738281 -21.503906 7.296875 -20.632812 7.296875 -19.40625 C 7.328125 -18.238281 7.832031 -17.367188 8.8125 -16.796875 C 9.800781 -16.234375 11.3125 -15.6875 13.34375 -15.15625 C 15.113281 -14.6875 16.582031 -14.179688 17.75 -13.640625 C 18.914062 -13.109375 19.898438 -12.316406 20.703125 -11.265625 C 21.503906 -10.222656 21.90625 -8.851562 21.90625 -7.15625 C 21.90625 -5.582031 21.453125 -4.21875 20.546875 -3.0625 C 19.648438 -1.914062 18.472656 -1.035156 17.015625 -0.421875 C 15.566406 0.191406 14.03125 0.5 12.40625 0.5 C 10.300781 0.5 8.359375 0.132812 6.578125 -0.59375 C 4.796875 -1.332031 3.285156 -2.5 2.046875 -4.09375 Z M 2.046875 -4.09375 "/></g></g></g><g fill="#121212" fill-opacity="1"><g transform="translate(412.699274, 92.202323)"><g><path d="M 28.34375 -13.09375 C 28.34375 -10.5 27.757812 -8.164062 26.59375 -6.09375 C 25.425781 -4.03125 23.832031 -2.414062 21.8125 -1.25 C 19.800781 -0.0820312 17.582031 0.5 15.15625 0.5 C 12.71875 0.5 10.488281 -0.0820312 8.46875 -1.25 C 6.457031 -2.414062 4.867188 -4.03125 3.703125 -6.09375 C 2.535156 -8.164062 1.953125 -10.5 1.953125 -13.09375 C 1.953125 -15.695312 2.535156 -18.046875 3.703125 -20.140625 C 4.867188 -22.242188 6.457031 -23.878906 8.46875 -25.046875 C 10.488281 -26.210938 12.71875 -26.796875 15.15625 -26.796875 C 17.582031 -26.796875 19.800781 -26.210938 21.8125 -25.046875 C 23.832031 -23.878906 25.425781 -22.242188 26.59375 -20.140625 C 27.757812 -18.046875 28.34375 -15.695312 28.34375 -13.09375 Z M 23.59375 -13.09375 C 23.59375 -14.894531 23.21875 -16.503906 22.46875 -17.921875 C 21.71875 -19.335938 20.703125 -20.4375 19.421875 -21.21875 C 18.140625 -22.007812 16.71875 -22.40625 15.15625 -22.40625 C 13.582031 -22.40625 12.15625 -22.007812 10.875 -21.21875 C 9.59375 -20.4375 8.578125 -19.335938 7.828125 -17.921875 C 7.078125 -16.503906 6.703125 -14.894531 6.703125 -13.09375 C 6.703125 -11.332031 7.078125 -9.75 7.828125 -8.34375 C 8.578125 -6.945312 9.59375 -5.859375 10.875 -5.078125 C 12.15625 -4.296875 13.582031 -3.90625 15.15625 -3.90625 C 16.71875 -3.90625 18.140625 -4.296875 19.421875 -5.078125 C 20.703125 -5.859375 21.71875 -6.945312 22.46875 -8.34375 C 23.21875 -9.75 23.59375 -11.332031 23.59375 -13.09375 Z M 23.59375 -13.09375 "/></g></g></g><g clip-path="url(#3b88941cf3)"><path fill="#121212" d="M 51.382812 23.96875 C 23.066406 23.96875 0.113281 46.804688 0.113281 74.96875 C 0.113281 103.136719 23.066406 125.972656 51.382812 125.972656 C 79.695312 125.972656 102.652344 103.136719 102.652344 74.96875 C 102.652344 46.804688 79.695312 23.96875 51.382812 23.96875 Z M 51.382812 117.878906 C 27.558594 117.878906 8.246094 98.671875 8.246094 74.96875 C 8.246094 51.269531 27.558594 32.058594 51.382812 32.058594 C 75.207031 32.058594 94.519531 51.269531 94.519531 74.96875 C 94.519531 98.671875 75.207031 117.878906 51.382812 117.878906 Z M 51.382812 117.878906 " fill-opacity="1" fill-rule="nonzero"/></g><path fill="#121212" d="M 83.511719 76.222656 L 83.53125 76.199219 L 83.53125 76.195312 C 84.203125 75.503906 84.207031 74.410156 83.527344 73.742188 L 58.363281 48.707031 C 58.023438 48.371094 57.578125 48.195312 57.132812 48.195312 C 56.679688 48.195312 56.234375 48.371094 55.894531 48.707031 L 55.867188 48.742188 C 55.535156 49.066406 55.355469 49.503906 55.355469 49.96875 L 55.355469 56.894531 C 55.355469 57.355469 55.539062 57.796875 55.867188 58.117188 L 72.796875 74.96875 L 55.867188 91.816406 C 55.535156 92.144531 55.355469 92.585938 55.355469 93.042969 L 55.355469 99.972656 C 55.355469 100.425781 55.539062 100.875 55.867188 101.199219 L 55.894531 101.230469 C 56.222656 101.554688 56.667969 101.738281 57.132812 101.738281 C 57.59375 101.738281 58.035156 101.554688 58.363281 101.230469 Z M 83.511719 76.222656 " fill-opacity="1" fill-rule="nonzero"/><path fill="#121212" d="M 19.863281 76.222656 L 19.84375 76.199219 L 19.84375 76.195312 C 19.171875 75.503906 19.171875 74.410156 19.84375 73.742188 L 45.011719 48.707031 C 45.355469 48.371094 45.800781 48.195312 46.246094 48.195312 C 46.695312 48.195312 47.136719 48.371094 47.476562 48.707031 L 47.511719 48.742188 C 47.839844 49.066406 48.027344 49.503906 48.027344 49.96875 L 48.027344 56.894531 C 48.027344 57.355469 47.839844 57.796875 47.511719 58.117188 L 30.574219 74.96875 L 47.511719 91.816406 C 47.839844 92.144531 48.027344 92.585938 48.027344 93.042969 L 48.027344 99.972656 C 48.027344 100.425781 47.839844 100.875 47.511719 101.199219 L 47.476562 101.230469 C 47.15625 101.554688 46.710938 101.738281 46.246094 101.738281 C 45.785156 101.738281 45.339844 101.554688 45.011719 101.230469 Z M 19.863281 76.222656 " fill-opacity="1" fill-rule="nonzero"/></svg>